<svg xmlns="http://www.w3.org/2000/svg" width="65" height="67" fill="none" viewBox="0 0 65 67">
  <g opacity=".25">
    <circle cx="33.073" cy="34.332" r="31.691" fill="#316DEF"/>
    <path fill="#fff" d="M47.146 19.718a1.024 1.024 0 00-.787-.787c-2.076-.445-3.7-.445-5.318-.445-6.654 0-10.645 3.56-13.623 8.253h-6.719a3.095 3.095 0 00-2.764 1.708l-3.186 6.37a1.549 1.549 0 001.385 2.238h6.691l-1.449 1.449a2.063 2.063 0 000 2.918l3.282 3.282a2.062 2.062 0 002.918 0l1.45-1.449v6.695a1.548 1.548 0 002.236 1.386l6.364-3.184a3.089 3.089 0 001.709-2.767v-6.731c4.68-2.986 8.253-6.99 8.253-13.61.006-1.625.006-3.25-.442-5.326zm-7.805 9.6a2.579 2.579 0 110-5.157 2.579 2.579 0 010 5.157z"/>
  </g>
  <circle cx="31.691" cy="31.691" r="31.691" fill="#316DEF"/>
  <path fill="#fff" d="M45.764 17.077a1.024 1.024 0 00-.787-.787c-2.076-.444-3.7-.444-5.319-.444-6.653 0-10.645 3.558-13.623 8.252h-6.718a3.095 3.095 0 00-2.764 1.708l-3.186 6.37a1.547 1.547 0 001.385 2.238h6.69l-1.448 1.45a2.063 2.063 0 000 2.917l3.282 3.282a2.062 2.062 0 002.918 0l1.449-1.449v6.696a1.548 1.548 0 002.237 1.385l6.364-3.184a3.09 3.09 0 001.708-2.766v-6.732c4.68-2.985 8.253-6.99 8.253-13.61.007-1.625.007-3.25-.441-5.326zm-7.805 9.6a2.579 2.579 0 110-5.158 2.579 2.579 0 010 5.158z"/>
</svg>
