<svg xmlns="http://www.w3.org/2000/svg" width="207" height="206" fill="none" viewBox="0 0 207 206">
  <path stroke="#D1E8F7" stroke-miterlimit="10" stroke-width="1.916" d="M107.17 182.986c48.283 0 87.423-39.203 87.423-87.563S155.453 7.859 107.17 7.859c-48.282 0-87.423 39.204-87.423 87.564 0 48.36 39.141 87.563 87.423 87.563z"/>
  <path fill="#FEBB94" d="M36.05 47.092c1.7 0 3.08-1.38 3.08-3.084a3.082 3.082 0 00-3.08-3.084c-1.7 0-3.08 1.38-3.08 3.084a3.082 3.082 0 003.08 3.084z"/>
  <path fill="#5661AE" d="M194.593 101.842a3.083 3.083 0 003.081-3.084 3.083 3.083 0 00-3.081-3.085 3.083 3.083 0 00-3.079 3.085 3.083 3.083 0 003.079 3.084z"/>
  <path fill="#1C85E8" d="M110.756 186.07a3.081 3.081 0 003.079-3.084 3.081 3.081 0 00-3.079-3.084 3.082 3.082 0 00-3.079 3.084 3.082 3.082 0 003.079 3.084z"/>
  <path stroke="#D1E8F7" stroke-miterlimit="10" stroke-width="1.43" d="M109.196 161.319c36.017 0 65.215-29.244 65.215-65.32 0-36.075-29.198-65.32-65.215-65.32C73.178 30.68 43.98 59.924 43.98 96c0 36.076 29.198 65.32 65.216 65.32z"/>
  <path fill="#FEBB94" d="M173.293 111.458a2.299 2.299 0 002.297-2.301 2.299 2.299 0 00-2.297-2.301 2.3 2.3 0 00-2.297 2.301 2.3 2.3 0 002.297 2.301z"/>
  <path fill="#5661AE" d="M48.71 122.848a2.299 2.299 0 002.297-2.301 2.299 2.299 0 00-2.297-2.301 2.299 2.299 0 00-2.297 2.301 2.299 2.299 0 002.297 2.301z"/>
  <path fill="#1C85E8" d="M79.984 39.838a2.299 2.299 0 002.297-2.3c0-1.271-1.029-2.301-2.297-2.301a2.299 2.299 0 00-2.297 2.3c0 1.271 1.028 2.301 2.297 2.301z"/>
  <path fill="#1C85E8" d="M143.138 168.333H67.824c-3.267 0-5.661-2.653-5.347-5.926L75.334 28.448c.313-3.273 3.217-5.925 6.484-5.925h75.314c3.267 0 5.661 2.652 5.347 5.925l-12.856 133.959c-.314 3.273-3.218 5.926-6.485 5.926z"/>
  <path fill="url(#paint0_linear_39_440)" d="M137.83 168.333H62.516c-3.267 0-5.66-2.653-5.347-5.926L70.026 28.448c.314-3.273 3.217-5.925 6.485-5.925h75.313c3.267 0 5.662 2.652 5.348 5.925l-12.857 133.959c-.314 3.273-3.218 5.926-6.485 5.926z"/>
  <path fill="#fff" d="M134.976 163.879h-68.75c-3.029 0-5.247-2.458-4.956-5.491l12.085-125.92c.291-3.034 2.982-5.492 6.01-5.492h68.75c3.028 0 5.247 2.458 4.956 5.491l-12.085 125.921c-.291 3.033-2.982 5.491-6.01 5.491z"/>
  <path fill="url(#paint1_linear_39_440)" d="M140.489 84.259l-73.751-.066a2.114 2.114 0 01-2.067-1.448 2.123 2.123 0 01-.098-.89l3.976-44.221a2.63 2.63 0 012.585-2.335l73.751.066a2.119 2.119 0 012.165 2.339l-3.976 44.22a2.633 2.633 0 01-.851 1.658c-.476.43-1.093.671-1.734.677z"/>
  <path fill="url(#paint2_linear_39_440)" d="M138.167 131.908h-31.172a1.618 1.618 0 01-1.223-.53 1.62 1.62 0 01-.403-1.273l3.785-39.437a2.025 2.025 0 011.972-1.802h31.172a1.599 1.599 0 011.224.53 1.604 1.604 0 01.403 1.272l-3.785 39.437a2.03 2.03 0 01-1.973 1.803z"/>
  <path stroke="#EF6A77" stroke-miterlimit="10" stroke-width="11.69" d="M130.736 110.152c3.515-3.356 3.898-8.669.854-11.868-3.043-3.198-8.36-3.07-11.876.285-3.515 3.356-3.898 8.67-.854 11.868 3.043 3.198 8.36 3.071 11.876-.285z"/>
  <path stroke="#fff" stroke-linecap="round" stroke-miterlimit="10" stroke-width="11.69" d="M121.273 112.118c-2.916-1.261-4.764-4.259-4.429-7.757.445-4.636 4.558-8.394 9.187-8.394"/>
  <path stroke="#fff" stroke-linecap="round" stroke-miterlimit="10" stroke-width="5.984" d="M120.581 119.334h6.413M119.883 126.609h6.413"/>
  <path stroke="#fff" stroke-linecap="round" stroke-miterlimit="10" stroke-width="5.984" d="M116.816 122.93h13.254" opacity=".4"/>
  <path fill="#FEBB94" d="M100.046 131.908H68.874a1.62 1.62 0 01-1.224-.53 1.611 1.611 0 01-.403-1.273l3.785-39.437a2.03 2.03 0 011.972-1.802h31.173a1.599 1.599 0 011.223.53 1.615 1.615 0 01.403 1.273l-3.785 39.436a2.03 2.03 0 01-1.972 1.803z"/>
  <path stroke="#EF6A77" stroke-miterlimit="10" stroke-width="11.69" d="M92.614 110.152c3.516-3.356 3.898-8.669.855-11.868-3.044-3.198-8.361-3.07-11.876.285-3.516 3.356-3.898 8.67-.855 11.868 3.044 3.198 8.36 3.071 11.876-.285z"/>
  <path stroke="#fff" stroke-linecap="round" stroke-miterlimit="10" stroke-width="11.69" d="M95.484 104.361c-.445 4.636-4.558 8.394-9.186 8.394-4.629 0-8.02-3.758-7.575-8.394.445-4.636 4.558-8.394 9.186-8.394"/>
  <path stroke="#fff" stroke-linecap="round" stroke-miterlimit="10" stroke-width="5.984" d="M82.46 119.334h6.413M81.761 126.609h6.414"/>
  <path stroke="#fff" stroke-linecap="round" stroke-miterlimit="10" stroke-width="5.984" d="M78.694 122.93h13.254" opacity=".4"/>
  <path fill="url(#paint3_linear_39_440)" d="M135.554 160.115H66.072a1.518 1.518 0 01-1.16-.502 1.528 1.528 0 01-.381-1.206l2.073-21.603a1.917 1.917 0 011.87-1.708h69.481a1.51 1.51 0 011.16.502 1.529 1.529 0 01.382 1.206l-2.073 21.603a1.924 1.924 0 01-1.87 1.708z"/>
  <path stroke="#fff" stroke-linecap="round" stroke-miterlimit="10" stroke-width="11.69" d="M70.91 155.106l.981-10.213M78.103 147.952l-.687 7.154M84.373 150.395l-.452 4.711M91.661 142.239l-1.234 12.867M97.384 150.395l-.452 4.711M104.617 142.808l-1.18 12.298M110.432 150l-.49 5.106M116.708 152.386l-.261 2.72M123.933 144.893l-.98 10.213M130.811 141.005l-1.353 14.101"/>
  <path fill="#FFCCB3" d="M72.712 77.478l3.904 6.127a1.246 1.246 0 01-.37 1.712l-.63.41a5.195 5.195 0 01-6.78-.976l-5.182-6.053 9.058-1.22z"/>
  <path fill="#FCBA9F" d="M69.732 79.836s1.446 4.972 4.35 6.568a12.696 12.696 0 002.164-1.087l-3.257-5.481"/>
  <path fill="#FFCCB3" d="M2.928 102.198l15.338-7.362a8.571 8.571 0 003.527-3.134L36.61 68.356a8.568 8.568 0 013.84-3.276l21.34-9.21-4.568 34.607-.08 1.279s-5.645 14.642-19.48 19.962l-22.119 13.55-12.615-23.07z"/>
  <path fill="#FCBA9F" d="M19.62 94.024s7.255 18.138 18.042 17.694l-6.887 4.219s-23.376-4.343-14.626-20.12l3.47-1.793zM58.487 62.275s-7.545 4.58-7.145 15.203l9.062-3.392-1.917-11.81z"/>
  <path fill="#FFCCB3" d="M77.442 77.478l3.905 6.127a1.246 1.246 0 01-.37 1.712l-.63.41a5.194 5.194 0 01-6.78-.976l-5.182-6.053 9.057-1.22z"/>
  <path fill="#1C85E8" d="M135.17 79.894l-73.751-.066a2.115 2.115 0 01-2.067-1.448 2.121 2.121 0 01-.098-.89l3.976-44.221a2.632 2.632 0 012.585-2.335l73.751.066a2.115 2.115 0 012.067 1.449c.096.286.129.59.098.89l-3.976 44.22a2.632 2.632 0 01-2.585 2.335z"/>
  <path stroke="#fff" stroke-linecap="round" stroke-miterlimit="10" stroke-width="7.565" d="M66.302 57.169s6.62-1.341 8.402 1.77c1.781 3.111 3.318 8.955 8.058 8.202 4.74-.754 8.37-16.03 13.03-15.891 4.66.14 3.017 10.145 8.09 10.284 5.072.14 4.17-5.589 7.551-5.429 4.101.194 2.572 12.064 7.919 12.204 5.348.14 6.22-15.68 14.304-15.402"/>
  <path stroke="#fff" stroke-linecap="round" stroke-miterlimit="10" stroke-width="11.999" d="M70.067 38.34l12.976.012"/>
  <path stroke="#fff" stroke-linecap="round" stroke-miterlimit="10" stroke-width="11.999" d="M69.531 44.298l26.815.024" opacity=".4"/>
  <path fill="#FFCCB3" d="M44.425 79.675l9.46-4.174 9.676-6.615c2.544-1.74 7.858-2.523 9.771-.105 1.946 2.46-.24 7.326-2.6 9.39l-8.941 7.82-4.65 5.765-12.716-12.081z"/>
  <path stroke="#FF967C" stroke-linecap="round" stroke-width="3" d="M63.654 71.398s1.277 4.933 4.588 5.786l3.513-2.972a3.275 3.275 0 001.183-3.554 3.276 3.276 0 00-2.571-2.3 3.266 3.266 0 00-2.22.402l-4.493 2.638z"/>
  <path fill="#1C85E8" d="M18.849 94.226S17.015 107.36 32.97 114.88c0 0-11.462 10.531-15.88 12.301-4.42 1.771-21.022-16.324-15.117-26.595 1.656-2.88 16.875-6.36 16.875-6.36z"/>
  <path fill="#FCBA9F" d="M79.304 80.399s-6.219.127-8.383 1.261l-1.563-1.825h9.587l.359.564z"/>
  <path fill="#FEBB94" d="M193.808 79.894H149.59c-3.331 0-5.792-2.705-5.497-6.04l5.933-67.108c.295-3.336 3.234-6.04 6.565-6.04h44.217c3.332 0 5.792 2.704 5.497 6.04l-5.933 67.107c-.295 3.337-3.235 6.041-6.564 6.041z"/>
  <path fill="#fff" d="M187.478 38.598c7.002-6.71 7.707-17.352 1.577-23.77-6.131-6.42-16.777-6.184-23.779.526-7.002 6.709-7.708 17.351-1.577 23.77 6.132 6.419 16.778 6.183 23.779-.526z"/>
  <path fill="url(#paint4_linear_39_440)" d="M177.314 27.498l11.1 10.14s2.525-2.719 3.278-4.662l-14.378-5.478z"/>
  <path fill="#1C85E8" d="M178.053 8.02l-1.577 17.841a1.677 1.677 0 00.838 1.637l15.06 8.398s8.944-24.99-14.321-27.876z"/>
  <path stroke="#fff" stroke-linecap="round" stroke-miterlimit="10" stroke-width="12" d="M154.48 56.142h18.318M153.139 71.31h18.318"/>
  <path stroke="#fff" stroke-linecap="round" stroke-miterlimit="10" stroke-width="12" d="M153.817 63.64h37.855" opacity=".4"/>
  <path fill="#FFCCB3" d="M139.428 129.332s5.905-1.578 9.048 1.812c0 0 5.648-1.028 7.945 2.12 0 0 5.008.29 6.458 2.336a6.89 6.89 0 015.458 4.279c1.37 3.233.208 21.922-1.153 28.619a9.522 9.522 0 00.338 5.025l3.462 9.966-23.955 10.03-5.687-14.858s-6.923-11.142-7.912-13.124c-.989-1.981.687-18.419-2.689-28.689l8.687-7.516z"/>
  <path fill="#FCBA9F" d="M144.432 186.733l-.691-1.805s12.43-.796 23.781-11.405l1.085 3.125s-1.402 6.455-7.785 9.498c-6.384 3.042-16.39.587-16.39.587z"/>
  <path fill="#5661AE" d="M144.432 186.733s15.045 1.373 24.175-10.085c0 0 3.371 1.77 8.547 14.729 1.59 3.981-24.957 18.153-29.249 12.262 0 0-3.705-7.851-3.473-16.906z"/>
  <path fill="#FFCCB3" d="M132.213 143.048s-.519 2.757-2.972 2.758c-1.601 0-8.541-2.1-13.172-3.56a6.446 6.446 0 00-7.047 2.221l-.281.366a1.68 1.68 0 00-.333 1.291 1.703 1.703 0 00.703 1.133c3.922 2.742 14.51 10.183 15.865 11.54 1.666 1.669 10.947 11.027 10.947 11.027l-3.71-26.776z"/>
  <path fill="#FCBA9F" d="M131.65 140.284s5.016 6.8 4.273 8.289c-.742 1.488-8.52-3.063-8.52-3.063s6.276 1.617 4.247-5.226z"/>
  <path fill="#FFCCB3" d="M130.741 136.848l-8.44-25.671a6.94 6.94 0 01.443-5.378 6.913 6.913 0 014.163-3.427 3.1 3.1 0 013.727 1.741l11.84 27.261-11.733 5.474z"/>
  <path stroke="#FF967C" stroke-linecap="round" stroke-width="3" d="M127.081 125.716a3.332 3.332 0 002.188 1.539M130.118 112.574c1.027-.455 2.159-1.092 2.647-1.836l-3.143-7.474a1.241 1.241 0 00-.739-.691 1.227 1.227 0 00-1.006.098c-1.119.646-2.595 1.813-2.652 3.488l2.126 5.298a2.071 2.071 0 002.767 1.117zM141.522 129.181l2.91 6.419M148.592 131.275a12.656 12.656 0 012.27 7.239M156.56 133.384s1.465 3.365 1.586 6.025M163.084 135.8a9.467 9.467 0 01.652 4.484M115.309 150.395s1.733-2.204 1.138-3.31c-.594-1.106-3.239-2.669-4.767-2.499-.729.11-1.433.35-2.077.709a.768.768 0 00-.325 1.018c.06.118.15.218.261.291l5.77 3.791z"/>
  <path fill="#FEBB94" d="M85.505 177.276h-52.8a1.52 1.52 0 01-1.481-1.064 1.523 1.523 0 01-.06-.644l2.073-21.604a1.922 1.922 0 011.87-1.708h52.8a1.533 1.533 0 011.16.502 1.533 1.533 0 01.381 1.206l-2.073 21.604a1.924 1.924 0 01-1.87 1.708z"/>
  <path stroke="#EF6A77" stroke-linecap="round" stroke-miterlimit="10" stroke-width="11.69" d="M37.662 157.89h32.585"/>
  <path stroke="#fff" stroke-linecap="round" stroke-miterlimit="10" stroke-width="11.69" d="M37.662 157.89h22.644"/>
  <path stroke="#EF6A77" stroke-linecap="round" stroke-miterlimit="10" stroke-width="11.69" d="M37.175 164.766H69.76"/>
  <path stroke="#fff" stroke-linecap="round" stroke-miterlimit="10" stroke-width="11.69" d="M37.175 164.766h13.538"/>
  <path stroke="#EF6A77" stroke-linecap="round" stroke-miterlimit="10" stroke-width="11.69" d="M36.11 171.642h32.585"/>
  <path stroke="#fff" stroke-linecap="round" stroke-miterlimit="10" stroke-width="11.69" d="M36.11 171.642h8.278"/>
  <path fill="#fff" d="M81.782 159.84a1.948 1.948 0 001.947-1.95c0-1.077-.872-1.95-1.947-1.95a1.948 1.948 0 00-1.947 1.95c0 1.077.872 1.95 1.947 1.95zM81.15 166.415a1.948 1.948 0 001.948-1.95c0-1.077-.872-1.95-1.947-1.95a1.948 1.948 0 00-1.947 1.95c0 1.077.871 1.95 1.947 1.95zM80.446 173.592a1.949 1.949 0 001.947-1.95c0-1.077-.872-1.95-1.947-1.95a1.948 1.948 0 00-1.947 1.95c0 1.077.872 1.95 1.947 1.95z"/>
  <defs>
    <linearGradient id="paint0_linear_39_440" x1="95.587" x2="164.986" y1="-23.871" y2="323.348" gradientUnits="userSpaceOnUse">
      <stop stop-color="#fff"/>
      <stop offset="1" stop-color="#94B9FF"/>
    </linearGradient>
    <linearGradient id="paint1_linear_39_440" x1="103.758" x2="110.487" y1="35.183" y2="139.775" gradientUnits="userSpaceOnUse">
      <stop stop-color="#fff"/>
      <stop offset="1" stop-color="#94B9FF"/>
    </linearGradient>
    <linearGradient id="paint2_linear_39_440" x1="123.686" x2="134.694" y1="88.763" y2="179.764" gradientUnits="userSpaceOnUse">
      <stop stop-color="#fff"/>
      <stop offset="1" stop-color="#94B9FF"/>
    </linearGradient>
    <linearGradient id="paint3_linear_39_440" x1="100.147" x2="102.086" y1="135.036" y2="188.637" gradientUnits="userSpaceOnUse">
      <stop stop-color="#fff"/>
      <stop offset="1" stop-color="#94B9FF"/>
    </linearGradient>
    <linearGradient id="paint4_linear_39_440" x1="184.145" x2="185.798" y1="27.474" y2="49.099" gradientUnits="userSpaceOnUse">
      <stop stop-color="#fff"/>
      <stop offset="1" stop-color="#94B9FF"/>
    </linearGradient>
  </defs>
</svg>
