<svg xmlns="http://www.w3.org/2000/svg" width="285" height="268" fill="none" viewBox="0 0 285 268">
  <path fill="#F5F8FF" d="M144.684 231.951c59.482 0 107.703-1.415 107.703-3.161s-48.221-3.161-107.703-3.161c-59.483 0-107.703 1.415-107.703 3.161s48.22 3.161 107.703 3.161z"/>
  <path fill="#5CA4E6" d="M159.401 227.511H86.274c-5.93 0-9.924-4.797-8.918-10.713l29.451-173.27c1.006-5.918 6.63-10.715 12.561-10.715h73.127c5.931 0 9.925 4.797 8.919 10.714l-29.452 173.271c-1.006 5.916-6.629 10.713-12.561 10.713z"/>
  <path fill="#D1E8F7" d="M150.268 227.511H77.141c-5.931 0-9.925-4.797-8.919-10.713l29.452-173.27c1.005-5.918 6.629-10.715 12.561-10.715h73.126c5.932 0 9.925 4.797 8.919 10.714l-29.451 173.271c-1.006 5.916-6.63 10.713-12.561 10.713z"/>
  <path fill="#fff" d="M150.688 221.719H78.69c-3.08 0-5.153-2.491-4.631-5.564l29.233-171.986c.523-3.072 3.443-5.563 6.522-5.563h71.999c3.08 0 5.153 2.49 4.631 5.563L157.21 216.155c-.522 3.073-3.442 5.564-6.522 5.564z"/>
  <path fill="url(#paint0_linear_35_285)" d="M157.503 96.554H88.66l7.175-39.542c.47-2.41 2.81-4.365 5.227-4.365h65.001c2.417 0 3.995 1.954 3.525 4.365L162.73 92.19c-.47 2.41-2.81 4.365-5.227 4.365z"/>
  <path fill="#FEBB94" d="M151.954 91.466H48.893c-2.417 0-3.995-1.955-3.525-4.366l6.858-35.176c.47-2.411 2.81-4.366 5.227-4.366h103.061c2.417 0 3.995 1.955 3.525 4.366L157.181 87.1c-.47 2.411-2.81 4.366-5.227 4.366zM145.379 217.234l-63.921.303c-2.417 0-3.995-1.954-3.525-4.365l6.858-35.177c.47-2.41 2.81-4.365 5.227-4.365l63.921-.303c2.417 0 3.995 1.955 3.525 4.366l-6.858 35.176c-.47 2.411-2.81 4.365-5.227 4.365z"/>
  <path stroke="#FF967C" stroke-linecap="round" stroke-miterlimit="10" stroke-width="16.521" d="M88.488 206.582c1.819-14.191 15.335-25.695 30.19-25.695s25.423 11.504 23.604 25.695"/>
  <path stroke="#fff" stroke-linecap="round" stroke-miterlimit="10" stroke-width="16.521" d="M88.488 206.582c1.819-14.191 15.335-25.695 30.19-25.695 7.353 0 13.655 2.818 17.925 7.385"/>
  <path fill="url(#paint1_linear_35_285)" d="M137.735 168.354h-45.77c-2.442 0-4.093-1.976-3.687-4.413l9.666-58.001c.406-2.437 2.716-4.413 5.159-4.413h45.769c2.443 0 4.094 1.976 3.688 4.413l-9.667 58.001c-.406 2.437-2.715 4.413-5.158 4.413z"/>
  <path fill="#fff" d="M106.06 132.199h-6.24a1.513 1.513 0 00-1.434 1.227l-3.39 20.337a1.006 1.006 0 00.212.863 1.01 1.01 0 00.813.364h6.24a1.512 1.512 0 001.435-1.227l3.389-20.337a1.004 1.004 0 00-.212-.863 1.014 1.014 0 00-.813-.364zM117.445 139.157h-6.24a1.516 1.516 0 00-1.435 1.227l-2.229 13.379a1.003 1.003 0 00.212.863 1.007 1.007 0 00.813.364h6.241a1.511 1.511 0 001.434-1.227l2.23-13.379a1.004 1.004 0 00-.212-.863 1.022 1.022 0 00-.814-.364zM132.517 119.58h-6.24a1.511 1.511 0 00-1.435 1.227l-5.492 32.956a1.003 1.003 0 00.212.863 1.01 1.01 0 00.814.364h6.24a1.51 1.51 0 001.435-1.227l5.492-32.956a1.003 1.003 0 00-.212-.864 1.019 1.019 0 00-.814-.363zM143.256 128.123h-6.24a1.512 1.512 0 00-1.435 1.227l-4.069 24.413a1.017 1.017 0 00.577 1.139c.141.063.295.093.449.088h6.24a1.512 1.512 0 001.435-1.227l4.069-24.413c.032-.151.03-.307-.006-.457a1.022 1.022 0 00-.571-.682 1.02 1.02 0 00-.449-.088z"/>
  <path stroke="#fff" stroke-linecap="round" stroke-miterlimit="10" stroke-width="10" d="M102.512 108.663h16.895M101.558 114.386h8.448"/>
  <path stroke="#fff" stroke-linecap="round" stroke-miterlimit="10" stroke-width="6" d="M96.817 159.135h3.268M109.362 159.135h3.268M121.171 159.135h3.268M133.334 159.135h3.267" opacity=".6"/>
  <path fill="url(#paint2_linear_35_285)" d="M197.771 168.354h-45.769c-2.443 0-4.094-1.976-3.688-4.413l9.666-58.001c.406-2.437 2.716-4.413 5.159-4.413h45.769c2.443 0 4.094 1.976 3.688 4.413l-9.666 58.001c-.407 2.437-2.716 4.413-5.159 4.413z"/>
  <path fill="#fff" d="M164.91 140.943h-6.24a1.51 1.51 0 00-1.435 1.227l-2.204 11.593a1.017 1.017 0 00.577 1.139c.141.063.295.093.449.088h6.241a1.511 1.511 0 001.434-1.227l2.204-11.593a1.003 1.003 0 00-.213-.864 1.007 1.007 0 00-.813-.363zM179.838 122.991h-6.24a1.515 1.515 0 00-1.435 1.227l-4.586 29.545a1.003 1.003 0 00.212.863 1.01 1.01 0 00.814.364h6.24a1.511 1.511 0 001.434-1.227l4.587-29.545a1.018 1.018 0 00-.212-.863 1.01 1.01 0 00-.814-.364zM190.489 131.427h-6.241a1.511 1.511 0 00-1.434 1.227l-3.428 21.109a1.017 1.017 0 00.213.863 1.007 1.007 0 00.813.364h6.24a1.51 1.51 0 001.435-1.227l3.427-21.109a1.003 1.003 0 00-.212-.864 1.015 1.015 0 00-.813-.363zM203.292 128.123h-6.24a1.507 1.507 0 00-1.435 1.227l-4.068 24.413a1.01 1.01 0 00.576 1.139c.141.063.295.093.449.088h6.24a1.512 1.512 0 001.435-1.227l4.069-24.413c.032-.151.03-.307-.006-.457a1.022 1.022 0 00-.571-.682 1.02 1.02 0 00-.449-.088z"/>
  <path stroke="#fff" stroke-linecap="round" stroke-miterlimit="10" stroke-width="10" d="M162.548 108.663h16.895M161.594 114.386h8.448"/>
  <path stroke="#fff" stroke-linecap="round" stroke-miterlimit="10" stroke-width="6" d="M156.853 159.135h3.267M169.398 159.135h3.268M181.208 159.135h3.267M193.37 159.135h3.267" opacity=".6"/>
  <path fill="#71C8EA" d="M3.496 233.539l12.997 27.122-1.612.769a2.281 2.281 0 01-1.737.092 2.27 2.27 0 01-1.294-1.16L.814 237.331a2.264 2.264 0 011.07-3.024l1.612-.768z"/>
  <path fill="#FFCCB3" d="M17.646 227.414l-8.97 3.699 5.032 7.099 7.952-2.421-4.014-8.377z"/>
  <path fill="#5661AE" d="M11.916 231.397s3.502 5.395 4.03 8.41c.529 3.015 2.338 18.264 1.851 19.639-.35.988-1.62 1.412-2.427 1.502a.857.857 0 01-.866-.485l-11.797-24.62a1.735 1.735 0 01.79-2.304c1.631-.818 4.128-2.044 5.18-2.426 1.624-.59 2.697-.586 3.24.284z"/>
  <path fill="#71C8EA" d="M75.411 244.304l-12.188 22.445a2.273 2.273 0 01-3.081.913l-1.572-.848 14.354-26.433 1.571.849a2.266 2.266 0 01.916 3.074z"/>
  <path fill="#FFCCB3" d="M59.103 233.551l8.77 4.146-5.384 6.836-7.82-2.818 4.434-8.164z"/>
  <path fill="#5661AE" d="M64.623 237.817s-3.77 5.212-4.45 8.196c-.68 2.985-3.26 18.124-2.844 19.521.3 1.005 1.547 1.492 2.348 1.623a.864.864 0 00.89-.441l13.03-23.994a1.734 1.734 0 00-.673-2.341c-1.588-.899-4.02-2.249-5.05-2.684-1.593-.671-2.664-.721-3.25.12z"/>
  <path fill="#D1E8F7" d="M85.526 201.578s3.358 16.634.752 19.893l-66.395 16.96-5.662-10.58L52.993 210.3l7.765-10.617 24.768 1.895z"/>
  <path fill="#5CA4E6" d="M68.725 213.447l-14.65 4.888-6.835 2.859 8.889 7.978-7.947 1.791-21.678-17.516h42.22zM18.381 226.464l.451 1.562 10.294 8.015 9.67-2.354s-18.654-8.855-20.415-7.223z"/>
  <path fill="#D1E8F7" d="M37.016 200.608s-18.774-1.016-28.08-.2c-5.992.526-8.152 15.822-3.37 18.605l51.319 26.212 6.048-10.901-33.106-22.354 23.685-3.324-16.496-8.038z"/>
  <path fill="#D1E8F7" d="M10.514 220.315c5.545 0 10.04-4.484 10.04-10.015 0-5.531-4.495-10.015-10.04-10.015-5.544 0-10.039 4.484-10.039 10.015 0 5.531 4.495 10.015 10.04 10.015zM84.61 221.608c5.545 0 10.04-4.484 10.04-10.014 0-5.532-4.495-10.016-10.04-10.016-5.544 0-10.04 4.484-10.04 10.016 0 5.53 4.496 10.014 10.04 10.014z"/>
  <path fill="#5661AE" d="M57.109 164.335c-1.058-5.209 1.43-5.075 2.258-5.903 0 0 3.105-2.554 5.47-.173 2.505 2.518 16.862 22.084 16.862 22.084l-8.983 8.242-1.688-2.01-4.374-5.204-4.679-5.562-.58-.633-6.312-7.131s2.624-.968 2.026-3.71z"/>
  <path fill="#5661AE" d="M62.09 169.565c3.616-1.208 5.565-5.111 4.354-8.717-1.21-3.607-5.123-5.551-8.739-4.343-3.615 1.208-5.564 5.111-4.353 8.717 1.211 3.607 5.123 5.551 8.739 4.343z"/>
  <path fill="#465393" d="M61.477 175.149a191.26 191.26 0 00-.933-5.251l-2.073-9.604s5.566 8.207 8.131 13.924c1.9 4.284 4.102 8.65 4.467 12.343l-4.374-5.203-4.678-5.562-.54-.647z"/>
  <path fill="#FFCCB3" d="M90.672 158.316c2.135-3.884 1.109-4.544 2.017-6.753.895-2.157-.694-7.502.827-6.773 1.52.728 1.991 2.666 1.991 2.666 1.04-1.836 1.998-5.213 4.487-5.599 2.49-.386 2.711.395 4.122 1.55 3.754 3.117-1.033 7.799-1.832 9.583-.514 1.118-4.292 4.525-4.71 5.27l-1.901 2.751-5-2.695z"/>
  <path fill="#E56441" d="M98.007 147.696l3.034-5.587-3.034 5.587z"/>
  <path stroke="#E56441" stroke-linecap="round" stroke-width=".947" d="M98.007 147.696l3.034-5.587"/>
  <path fill="#E56441" d="M99.994 148.601l3.307-5.204-3.307 5.204z"/>
  <path stroke="#E56441" stroke-linecap="round" stroke-width=".947" d="M99.994 148.601l3.307-5.204"/>
  <path fill="#E56441" d="M102.356 149.601l1.89-3.151-1.89 3.151z"/>
  <path stroke="#E56441" stroke-linecap="round" stroke-width=".947" d="M102.356 149.601l1.89-3.151"/>
  <path fill="#E56441" d="M97.257 152.615c-.016-1.935-1.18-4.276-1.18-4.276l1.18 4.276z"/>
  <path stroke="#E56441" stroke-linecap="round" stroke-width=".947" d="M97.257 152.615c-.016-1.935-1.18-4.276-1.18-4.276"/>
  <path fill="#5661AE" d="M72.64 180.188l18.267-24.267a.748.748 0 01.986-.153l4.784 3.155a1.105 1.105 0 01.352 1.44l-14.69 27.025-9.699-7.2z"/>
  <path fill="#5661AE" d="M77.078 190.438c3.379 0 6.118-2.733 6.118-6.103 0-3.37-2.74-6.102-6.118-6.102s-6.117 2.732-6.117 6.102 2.74 6.103 6.117 6.103zM49.952 153.068s10.251 2.706 12.01 3.408c1.76.703 1.878 3.511 1.995 5.501.117 1.989-.277 46.669-.277 46.669l-22.686-.87-16.966-9.907s.738-35.452.972-37.091c.235-1.638-1.609-3.049.39-3.874l12.846-3.385 11.716-.451z"/>
  <path fill="#465393" d="M32.881 168.985l.183 33.011-9.753-10.844 4.718-23.195 4.852 1.028zM36.563 154.024s-1.452 2.911 0 4.919c1.45 2.009 7.26 3.96 11.23 3.902 3.968-.057 6.072-3.832 4.272-9.117l-6.573-1.842-7.256 1.633-1.673.505z"/>
  <path fill="#2655BC" d="M52.993 128.932s2.858 6.152-.19 7.423-2.693-7.125.19-7.423z"/>
  <path fill="#FFCCB3" d="M49.77 148.619l.826 9.302s.793 1.247-2.294 1.901c-1.986.421-7.334-1.68-8.372-2.311a2.142 2.142 0 01-1.044-2.523c.315-1.138 1.622-10.621 1.622-10.621l9.261 4.252z"/>
  <path fill="#FF967C" d="M49.928 150.412l-4.925-2.427 5.491 8.789-.566-6.362z"/>
  <path fill="#FFCCB3" d="M51.352 130.712s2.89 7.233 3.94 12.306c1.057 5.119-.63 6.398-2.858 7.15-1.757.594-4.562 1.068-6.47.472-3.48-1.087-6.885-4.224-7.699-4.868-1.26-.997-2.505-5.522-.657-8.082 1.847-2.56 9.127-10.604 13.744-6.978z"/>
  <path fill="#080B09" d="M47.63 140.695c.384-.151.509-.747.278-1.333-.231-.585-.73-.938-1.114-.787-.385.151-.509.748-.278 1.333.23.586.73.938 1.114.787zM52.914 138.583c.385-.151.509-.748.278-1.333-.23-.586-.73-.938-1.114-.787-.385.151-.509.748-.278 1.333.23.585.73.938 1.114.787z"/>
  <path fill="#E56441" d="M50.976 139.582s-.47 1.417.517 1.279c.939-.164 1.575.298.756 1.248"/>
  <path stroke="#E56441" stroke-linecap="round" stroke-width=".947" d="M50.976 139.582s-.47 1.417.517 1.279c.939-.164 1.575.298.756 1.248"/>
  <path fill="#E56441" stroke="#E56441" d="M52.294 143.362l.005-.001.005-.002a.085.085 0 01.042-.001c.014.003.027.01.037.02.01.01.018.023.022.036a.083.083 0 010 .042l-.003.012-.001.012c-.06.62-.215.989-.403 1.196-.182.201-.41.267-.667.248-.265-.021-.556-.132-.838-.285a5.202 5.202 0 01-.738-.496.105.105 0 01-.03-.104.109.109 0 01.027-.05.11.11 0 01.05-.028h.002c.763-.193 1.914-.464 2.49-.599z"/>
  <path fill="#080B09" d="M44.282 138.217l.073.101a.69.69 0 00.94.246l2.667-1.639a.604.604 0 00.255-.776.657.657 0 00-.926-.333l-2.74 1.538a.64.64 0 00-.317.374.629.629 0 00.048.489zM53.494 134.014l-3.13.289a.66.66 0 00-.575.524.655.655 0 00.004.275.603.603 0 00.652.494l3.128-.165a.688.688 0 00.633-.736l.002-.124a.628.628 0 00-.714-.557z"/>
  <path fill="#316DEF" d="M47.764 132.155s-1.562 2.965-4.396 3.845c-2.834.879-1.285 5.341-1.285 5.341s-1.943-1.929-4.177-.843c-2.234 1.085-.538 5.345 2.548 5.399l-.84 4.794s-1.563-1.941-3.206-2.98c-1.644-1.039-7.549-5.072-4.94-10.384 0 0-2.041-7.458 3.556-11.324 5.597-3.867 10.442-2.408 10.442-2.408s1.334-2.111 4.427-1.68c3.093.431 3.806 5.995 2.782 8.007-1.024 2.012-2.693 2.868-4.911 2.233z"/>
  <path fill="#5661AE" d="M24.445 161.882c3.936-3.582 5.098-1.384 6.236-1.101 0 0 3.792 1.345 2.96 4.594-.88 3.437-10.33 25.777-10.33 25.777l-11.704-3.454.862-2.478 2.228-6.416 2.38-6.862.245-.823 2.89-9.064s2.182 1.747 4.233-.173z"/>
  <path fill="#5661AE" d="M32.24 168.08a6.875 6.875 0 00-.755-9.71 6.915 6.915 0 00-9.734.752 6.876 6.876 0 00.755 9.711 6.916 6.916 0 009.734-.753zM22.152 185.665l21.728 21.24a.743.743 0 01.023.996l-3.761 4.317a1.11 1.11 0 01-1.477.161l-24.937-18.063 8.424-8.651z"/>
  <path fill="#5661AE" d="M17.45 195.614c3.378 0 6.117-2.732 6.117-6.102s-2.74-6.102-6.118-6.102-6.117 2.732-6.117 6.102 2.74 6.102 6.117 6.102z"/>
  <path fill="#fff" d="M52.799 181.574l-11.792 32.59h-23.71c0-.995.397-1.95 1.102-2.653a3.765 3.765 0 012.66-1.099h17.153l10.182-28.838H52.8z"/>
  <path fill="url(#paint3_linear_35_285)" d="M52.799 181.574H84.61l-12.303 32.59h-31.3l11.792-32.59z"/>
  <path stroke="#fff" stroke-linecap="round" stroke-miterlimit="10" stroke-width="5" d="M97.218 75.29s5.3-1.114 6.982 1.458c1.681 2.571 3.362 7.402 7.173 6.776 3.811-.627 6.725-13.261 10.535-13.15 3.811.113 2.13 8.386 6.277 8.498 4.147.112 3.138-4.584 6.5-4.584 3.363 0 2.242 10.063 6.613 10.174 4.371.112 3.923-12.97 10.535-12.746"/>
  <path stroke="#FF967C" stroke-linecap="round" stroke-miterlimit="10" stroke-width="16.521" d="M81.745 73.552c2.7-6.615.1-13.92-5.805-16.32-5.905-2.397-12.88 1.02-15.58 7.635-2.699 6.614-.1 13.92 5.805 16.319 5.905 2.398 12.881-1.02 15.58-7.634z"/>
  <path stroke="#fff" stroke-linecap="round" stroke-miterlimit="10" stroke-width="16.521" d="M76.551 79.952c-3.116 2.05-6.934 2.636-10.386 1.234-5.905-2.398-8.504-9.705-5.805-16.319 2.7-6.615 9.675-10.032 15.58-7.634"/>
  <path stroke="#fff" stroke-linecap="round" stroke-miterlimit="10" stroke-width="10" d="M101.202 56.466h23.324"/>
  <path stroke="#fff" stroke-linecap="round" stroke-miterlimit="10" stroke-width="10" d="M100.097 62.884h9.489" opacity=".6"/>
  <path fill="#233B62" d="M277.782 215.984c-.067.008-.097.045-.061.075-.03.037-.03.037-.021.104a8.035 8.035 0 00-.301 1.414l5.754 4.613.638-.714s-2.125-2.621-2.92-3.383c-.343-.336-.649-.642-.956-.949-.267-.276-.507-.59-.737-.836-.322-.44-1.254-.271-1.263-.338-.036-.03-.133.014-.133.014z"/>
  <path fill="#FFCCB3" d="M234.273 175.899l5.557 5.371 31.066 29.929.568.515.245.381.037.03 4.4 6.651.492.761.164.254 2.977 4.531-2.452 1.217-.711.348-1.001.483-1.581.816-.027.037-1.679.861-.082-.127-3.823-7.291a10.986 10.986 0 00-3.047-3.606l-33.783-25.798-6.421-4.904 9.101-10.459z"/>
  <path fill="#1C85E8" d="M275.721 212.372c-1.49-.69-3.162-1.307-4.795-1.21.984.86 1.433 2.391 2.085 3.507 1.339 2.298 4.771 6.568 3.017 10.196-.987 2.039-3.742 3.122-3.781 3.092-.462 2.094-2.747 10.617 1.811 5.676 2.546-2.759 5.071-5.706 6.34-8.632.522-1.199-.58-2.396-1.12-3.408-.692-1.533-1.724-3.562-1.593-5.259l.027-.037c.076-.117 5.978 5.154 6.079 5.179.203-.328.676-.99.676-.99s-8.464-8.009-8.746-8.114z"/>
  <path fill="#233B62" d="M212.153 240.253c-.053-.042-.101-.036-.095.011-.047.006-.047.006-.089.059-.425.231-.828.5-1.205.802l.879 7.312.956-.066s.32-3.355.283-4.456c-.009-.48-.013-.912-.017-1.344.002-.385.052-.775.059-1.113.08-.538-.706-1.069-.665-1.122-.005-.047-.106-.083-.106-.083z"/>
  <path fill="#FFCCB3" d="M209.153 181.248l.205 7.714 1.227 43.066.044.764-.091.444.006.047-1.517 7.824-.182.887-.061.296-1.047 5.317-2.607-.842-.752-.246-1.055-.355-1.7-.517-.048.005-1.801-.553.031-.148 2.377-7.879c.456-1.525.576-3.13.349-4.705l-6.063-42.006-1.153-7.986 13.838-1.127z"/>
  <path fill="#1C85E8" d="M213.211 236.233c-.581-1.532-1.343-3.139-2.578-4.21.101 1.302-.652 2.71-.969 3.961-.653 2.577-1.193 8.024-4.99 9.394-2.134.77-4.864-.38-4.87-.427-1.797 1.175-9.407 5.672-2.685 5.32 3.754-.196 7.625-.541 10.584-1.747 1.213-.494 1.265-2.117 1.588-3.218.58-1.578 1.264-3.75 2.546-4.871l.048-.006c.136-.031.66 7.854.714 7.942.374-.093 1.176-.237 1.176-.237s-.435-11.628-.564-11.901z"/>
  <path fill="#1F2D49" d="M200.783 123.367l-10.982 46.264-.02 3.285 8.93 54.781 14.219-1.536-4.125-52.319 11.313-27.298-2.287-22.386-17.048-.791z"/>
  <path fill="#1F2D49" d="M199.246 180.868c5.303 0 9.603-4.289 9.603-9.58 0-5.29-4.3-9.579-9.603-9.579-5.304 0-9.603 4.289-9.603 9.579 0 5.291 4.299 9.58 9.603 9.58z"/>
  <path fill="#0D1B33" d="M212.409 165.145l-2.708-22.858-.896 31.555 3.604-8.697z"/>
  <path fill="#1F2D49" d="M230.428 123.223s5.12 8.581 5.186 15.768c.104 10.785-3.796 30.125-3.796 30.125l34.046 34.329-8.105 12.124s-29.052-24.047-41.344-35.469l-2.753-5.561-3.961-32.252 6.054-19.064h14.673z"/>
  <path fill="#0D1B33" d="M200.783 123.367l29.821.306 2.898 5.983-33.223-4.166.504-2.123z"/>
  <path fill="#1F2D49" d="M223.179 182.88c5.304 0 9.604-4.288 9.604-9.579s-4.3-9.58-9.604-9.58c-5.304 0-9.603 4.289-9.603 9.58s4.299 9.579 9.603 9.579zM197.302 59.793s.4 4.447-.776 8.722c-1.176 4.274-10.082 13.326-2.184 20.702 7.897 7.375 17.559-12.405 17.559-12.405l-3.024-9.136-10.46-10.855-1.115 2.972zM221.398 60.831s2.37 3.004 7.771 5.46c5.298 2.409 11.004 6.369 9.829 15.002-1.177 8.632-16.842 1.927-21.444-3.018s-3.969-13.773-3.969-13.773l7.813-3.67z"/>
  <path fill="#FEBB94" d="M209.283 77.007s-6.012 2.373-6.93 3.105c-.917.733-1.789 6.711-3.35 9.55-1.56 2.838-3.842 8.076-.508 12.889 3.333 4.812 2.979 8.633 2.979 8.633l-.709 12.071 28.731.528a1.786 1.786 0 001.839-1.943c-.318-3.52-1.778-8.462-1.893-14.066-.155-7.595-.27-32.973-.27-32.973l-12.518-.392c-2.521.434-7.371 2.598-7.371 2.598z"/>
  <path fill="#FF967C" d="M224.244 85.175s-4.187 3.809-4.433 6.634c-.246 2.826-.816 10.705-6.197 11.491-6.596.963-8.323 1.901-5.265 2.638 3.057.737 9.997-.457 9.997 2.703 0 2.249 2.696 3.931 4.051 2.703 1.355-1.229 12.146-19.903 1.847-26.169z"/>
  <path fill="#FFCCB3" d="M173.743 88.367l-2.27-2.898a5.165 5.165 0 00-1.842-1.617c-1.117-.558-2.83-1.599-3.425-2.639-.986-1.653-4.873-6.12-1.501-9.591 1.248-1.281.936-.978 3.431-.94 2.495.038 2.878 2.621 4.124 4.311 0 0 .28-1.95 1.658-2.84 1.379-.891.464 4.55 1.524 6.612 1.061 2.063.204 2.842 2.716 6.465l-4.415 3.137z"/>
  <path fill="#E56441" d="M167.756 70.98l2.028 4.588-2.028-4.588z"/>
  <path stroke="#E56441" stroke-linecap="round" stroke-width=".947" d="M167.756 70.98l2.028 4.588"/>
  <path fill="#E56441" d="M165.112 71.796l2.809 4.886-2.809-4.886z"/>
  <path stroke="#E56441" stroke-linecap="round" stroke-width=".947" d="M165.112 71.796l2.809 4.886"/>
  <path fill="#E56441" d="M163.453 75.008l2.215 2.917-2.215-2.917z"/>
  <path stroke="#E56441" stroke-linecap="round" stroke-width=".947" d="M163.453 75.008l2.215 2.917"/>
  <path fill="#E56441" d="M171.739 76.033s-.858 2.452-.71 4.384l.71-4.384z"/>
  <path stroke="#E56441" stroke-linecap="round" stroke-width=".947" d="M171.739 76.033s-.858 2.452-.71 4.384"/>
  <path fill="#FEBB94" d="M203.814 79.323c-2.331.806-5.579 2.44-6.459 4.264l-7.768 17.653-12.937-19.61-4.899 5.148 12.082 24.927c2.208 5.482 7.816 7.542 11.878 1.634l6.491-10.17 1.612-23.846z"/>
  <path fill="#FF967C" d="M200.501 94.52s-.7-1.206-.7 5.085l-4.09 13.734 6.491-10.17c5.207-6.983 1.093-8.849-1.701-8.65z"/>
  <path fill="#1C85E8" d="M214.742 86.19l-21.458 8.526a1.296 1.296 0 00-.726 1.684l10.74 26.897a1.3 1.3 0 001.688.725l21.458-8.526a1.295 1.295 0 00.726-1.684l-10.74-26.897a1.3 1.3 0 00-1.688-.725z"/>
  <path stroke="#fff" stroke-linecap="round" stroke-miterlimit="10" stroke-width="4" d="M196.559 97.246l8.848-3.516M197.895 100.406l4.033-1.602"/>
  <path fill="#FFCCB3" d="M208.522 70.684l.338 9.436s-.463 2.066 1.663 1.837c2.126-.23 4.988-1.9 6.596-3.733 1.609-1.834 1.499-1.981.81-3.185-.69-1.203-3.927-10.376-3.927-10.376l-5.48 6.021z"/>
  <path fill="#FCBA9F" d="M208.57 71.475l3.92-2.49s-1.737 7.604-3.63 11.135l-.29-8.645z"/>
  <path fill="#FFCCB3" d="M198.002 56.563s-.063 9.39 3.999 14.117c2.648 3.082 5.434 2.673 10.082-2.4 4.261-4.653 4.859-7.078 4.859-7.078L214 51.99s-15.52-3.973-15.998 4.573z"/>
  <path fill="#1F2D49" d="M202.043 54.385s1.701 4.12 4.861 5.273c3.159 1.151 3.986 3.293 3.986 3.293s.606-3.524 3.089-3.396c2.483.128 1.978 4.501.437 5.953 0 0 1.854 3.43 3.426 5.967l6.885-6.816s-3.548-4.09-4.328-7.383c-.779-3.291-3.304-12.103-12.927-11.52-11.299.686-10.65 9.845-10.17 14.932 0 0 3.543-1.355 4.741-6.303z"/>
  <path fill="#E56441" stroke="#E56441" d="M203.266 67.776l2.747-1.344.007.05c.019.143.027.34-.012.558-.077.424-.34.94-1.12 1.275-.501.162-.929.002-1.242-.21a2.197 2.197 0 01-.38-.329z"/>
  <path fill="#080B09" d="M200.274 63.962c.347-.085.526-.568.4-1.079-.126-.51-.51-.855-.857-.769-.347.086-.526.569-.4 1.08.126.51.51.854.857.768zM205.421 62.772c.347-.085.526-.568.4-1.079-.127-.51-.51-.854-.857-.769-.347.086-.527.569-.4 1.08.126.51.51.854.857.768zM198.277 61.21l2.62-.6a.192.192 0 00.129-.212.62.62 0 00-.572-.393.61.61 0 00-.239.05l-2.054.867c-.171.042-.097.341.116.289zM207.072 58.872l-3.411 1.066a.784.784 0 01.369-.834.78.78 0 01.306-.102l2.726-.354c.085-.021.138.192.01.224z"/>
  <path fill="#E56441" d="M202.111 62.256l-.37 2.755.976.47"/>
  <path stroke="#E56441" stroke-linecap="round" stroke-width=".947" d="M202.111 62.256l-.37 2.755.976.47"/>
  <path fill="#FFCCB3" d="M204.708 110.565l-8.46 2.421-1.035 5.201 1.925 5.756s1.353-.908 1.071-3.027c-.282-2.119 6.867-2.058 8.177-4.722"/>
  <path fill="#FEBB94" d="M224.034 81.9s-.056-7.149 5.684-7.15c3.851 0 5.693 1.8 6.185 7.42.343 3.93.591 25.488.591 25.488s.968 9.84-7.398 10.023l-24.158-.721-.545-6.733 21.059-2.094-1.418-26.233z"/>
  <path fill="#FEBB94" d="M206.564 81.006s2.179-.618 1.826-2.753c-.345-2.1-.358-3.924.333-3.67 0 0 .61 1.043 4.401-.117 3.766-1.115 3.53-2.404 3.53-2.404s.533-.472.931.737c.398 1.21 1.407 4.558 3.54 4.317l.577 6.24-11.345 3.726c-.025.043-5.268-5.024-3.793-6.076z"/>
  <path stroke="#fff" stroke-linecap="round" stroke-miterlimit="10" stroke-width="5" d="M114.034 205.546h7.137"/>
  <path stroke="#fff" stroke-linecap="round" stroke-miterlimit="10" stroke-width="5" d="M115.487 208.636h3.569" opacity=".5"/>
  <path stroke="#fff" stroke-linecap="round" stroke-linejoin="round" stroke-width="6.504" d="M109.279 199.376l5.477-3.81 3.858 2.563 5.135-3.709"/>
  <path stroke="#fff" stroke-linecap="round" stroke-linejoin="round" stroke-width="6.504" d="M119.801 192.803h5.462v5.392"/>
  <path fill="#1C85E8" d="M184.474 25.39h-21.169a1.665 1.665 0 01-1.357-.616 1.646 1.646 0 01-.315-1.455l3.254-16.686a2.638 2.638 0 012.479-2.071h21.169a1.664 1.664 0 011.688 1.306 1.66 1.66 0 01-.016.765l-3.253 16.686a2.64 2.64 0 01-2.48 2.071z"/>
  <path fill="#fff" d="M169.954 9.075l14.095.003a.659.659 0 01.667.503c.023.098.023.2 0 .299l-.193 1.052a1.01 1.01 0 01-.56.708l-7.722 3.707a.823.823 0 01-.775-.004l-6.352-3.82a.663.663 0 01-.26-.305.663.663 0 01-.034-.399l.173-.942a1.013 1.013 0 01.961-.802z"/>
  <path fill="#fff" d="M169.254 12.908l6.078 3.803a.55.55 0 00.541 0l7.471-3.8c.402-.205.806.054.731.468l-1.111 6.057a1.82 1.82 0 01-1.726 1.441l-12.799-.002a1.181 1.181 0 01-.957-.424 1.173 1.173 0 01-.241-1.018l1.111-6.057a.639.639 0 01.618-.528.635.635 0 01.284.06z"/>
  <path fill="#FF967C" d="M189.267 8.932a4.375 4.375 0 004.38-4.37 4.375 4.375 0 00-4.38-4.37 4.376 4.376 0 00-4.382 4.37 4.376 4.376 0 004.382 4.37zM189.573 101.234l3.633 5.384-1.937-9.199-1.696 3.815z"/>
  <defs>
    <linearGradient id="paint0_linear_35_285" x1="127.149" x2="132.664" y1="52.542" y2="146.405" gradientUnits="userSpaceOnUse">
      <stop stop-color="#fff"/>
      <stop offset="1" stop-color="#94B9FF"/>
    </linearGradient>
    <linearGradient id="paint1_linear_35_285" x1="112.963" x2="136.047" y1="80.265" y2="242.472" gradientUnits="userSpaceOnUse">
      <stop stop-color="#fff"/>
      <stop offset="1" stop-color="#94B9FF"/>
    </linearGradient>
    <linearGradient id="paint2_linear_35_285" x1="172.999" x2="196.083" y1="80.265" y2="242.472" gradientUnits="userSpaceOnUse">
      <stop stop-color="#fff"/>
      <stop offset="1" stop-color="#94B9FF"/>
    </linearGradient>
    <linearGradient id="paint3_linear_35_285" x1="61.723" x2="67.351" y1="181.496" y2="250.951" gradientUnits="userSpaceOnUse">
      <stop stop-color="#fff"/>
      <stop offset="1" stop-color="#94B9FF"/>
    </linearGradient>
  </defs>
</svg>
